<?xml version="1.0" encoding="utf-8"?>
<!-- Generator: Adobe Illustrator 16.0.0, SVG Export Plug-In . SVG Version: 6.00 Build 0)  -->
<!DOCTYPE svg PUBLIC "-//W3C//DTD SVG 1.1//EN" "http://www.w3.org/Graphics/SVG/1.1/DTD/svg11.dtd">
<svg version="1.1" id="Layer_1" xmlns="http://www.w3.org/2000/svg" xmlns:xlink="http://www.w3.org/1999/xlink" x="0px" y="0px"
	 width="72px" height="23.089px" viewBox="0 0 72 23.089" enable-background="new 0 0 72 23.089" xml:space="preserve">
<g id="Layer_1_1_" display="none">
	<text transform="matrix(1 0 0 1 -780.1309 159.2231)" display="inline" font-family="'Livvic-SemiBold'" font-size="196.5004">tinda</text>
	<path display="inline" d="M-668.728,591.894c-11.922,0-21.191-3.271-27.805-9.824c-6.616-6.549-9.858-15.131-9.727-25.74
		l0.786-45.393h-16.899v-20.045h17.292l0.196-20.436h23.973l-0.393,20.436h32.422v20.045H-681.5l-0.59,42.838
		c-0.132,5.371,1.21,9.598,4.028,12.674c2.815,3.08,7.041,4.617,12.674,4.617c3.012,0,5.828-0.395,8.45-1.18
		c2.619-0.785,5.37-2.227,8.253-4.322l7.074,18.471c-3.015,2.623-6.877,4.588-11.593,5.896
		C-657.92,591.238-663.097,591.894-668.728,591.894z"/>
	<path display="inline" d="M-619.209,475.173c-4.716,0-8.45-1.439-11.201-4.324c-2.751-2.879-4.126-6.352-4.126-10.414
		c0-4.059,1.375-7.529,4.126-10.414c2.751-2.881,6.484-4.322,11.201-4.322c4.716,0,8.449,1.441,11.2,4.322
		c2.751,2.885,4.126,6.355,4.126,10.414c0,4.063-1.375,7.535-4.126,10.414C-610.76,473.734-614.494,475.173-619.209,475.173z
		 M-607.223,490.892v99.234h-23.973v-99.234H-607.223L-607.223,490.892z"/>
	<path display="inline" d="M-581.679,590.126v-99.234h23.973l-1.179,24.957c3.798-8.514,8.972-15.063,15.524-19.65
		c6.549-4.584,14.016-6.877,22.401-6.877c11.133,0,19.552,3.832,25.25,11.496c5.699,7.662,8.48,18.637,8.352,32.912l-0.393,56.396
		h-23.973l0.393-54.43c0.129-7.73-1.081-13.658-3.635-17.783c-2.555-4.127-6.65-6.191-12.281-6.191
		c-4.323,0-8.321,1.248-11.986,3.734c-3.669,2.49-6.878,6.715-9.629,12.674c-2.751,5.963-4.912,14.021-6.484,24.17
		c-1.572,10.154-2.425,22.764-2.555,37.826H-581.679L-581.679,590.126z"/>
	<path display="inline" d="M-370.441,444.716v145.41h-24.366l0.786-17.293c-3.537,6.16-8.124,10.875-13.755,14.146
		c-5.634,3.273-12.183,4.914-19.65,4.914c-8.646,0-15.984-1.996-22.008-5.992c-6.027-3.996-10.611-9.531-13.755-16.605
		s-4.716-15.195-4.716-24.365c0-11.004,2.162-20.664,6.484-28.982c4.323-8.318,10.249-14.836,17.783-19.553
		c7.532-4.717,16.015-7.074,25.447-7.074c4.977,0,9.53,0.854,13.657,2.555c4.126,1.703,7.565,4.063,10.316,7.074l-0.196-8.059
		v-46.176H-370.441L-370.441,444.716z M-416.422,510.542c-8.124,0-14.608,3.08-19.454,9.236c-4.848,6.158-7.271,14.215-7.271,24.17
		c0,8.516,1.833,15.131,5.502,19.846c3.666,4.717,8.71,7.074,15.131,7.074c5.238,0,9.988-1.504,14.246-4.52
		c4.255-3.014,7.63-7.203,10.12-12.576c2.487-5.369,3.734-11.525,3.734-18.473c0-7.727-1.965-13.785-5.895-18.176
		C-404.239,512.738-409.612,510.542-416.422,510.542z"/>
	<text transform="matrix(1 0 0 1 442.2393 452.9595)" display="inline" font-family="'HangingLetters'" font-size="196.5004">tinda</text>
	<text transform="matrix(1 0 0 1 -723.5508 -22.0415)" display="inline" font-family="'Bauhaus93'" font-size="196.5004">tinda</text>
	<text transform="matrix(1 0 0 1 -184.0776 8.2222)" display="inline" font-family="'Candara-Bold'" font-size="196.5004">tinda</text>
</g>
<g id="Layer_2">
	<g>
		<path fill="#D1181F" d="M71.959,6.988c-0.299,0.009-0.827,8.072-0.268,15.639h-0.17l-3.431,0.055l0.125-2.745
			c-0.562,0.956-1.295,1.701-2.2,2.229c-0.904,0.53-1.938,0.795-3.104,0.795c-1.373,0-2.538-0.316-3.494-0.951
			c-0.958-0.635-1.686-1.514-2.186-2.637s-0.748-2.412-0.748-3.869c0-1.748,0.343-3.28,1.029-4.602
			c0.687-1.321,1.627-2.356,2.823-3.104c1.196-0.749,2.542-1.124,4.041-1.124c0.999,0,1.882,0.214,2.651,0.639
			c0.771,0.428,1.363,0.994,1.779,1.701l0.375-2.027C69.184,6.988,72.395,6.974,71.959,6.988z M64.659,10.045
			c-1.29,0-2.32,0.489-3.089,1.466c-0.771,0.979-1.154,2.258-1.154,3.838c0,1.354,0.292,2.402,0.873,3.152
			c0.583,0.748,1.384,1.121,2.402,1.121c0.832,0,1.586-0.238,2.263-0.717c0.675-0.479,1.211-1.144,1.606-1.996
			c0.396-0.854,0.592-1.832,0.592-2.934c0-1.229-0.313-2.189-0.937-2.886C66.593,10.394,65.738,10.045,64.659,10.045z"/>
		<path fill="#D1181F" d="M10.481,19.634l-0.272,2.848c-0.747,0.32-1.686,0.479-2.816,0.479c-1.728,0-3.03-0.469-3.904-1.406
			c-0.875-0.939-1.312-2.748-1.312-5.426c0-1.61,0.01-3.435,0.032-5.472c-0.544,0-1.28,0.033-2.208,0.096l0.112-3.151
			C0.934,7.665,1.696,7.696,2.4,7.696c0.01-0.565,0.053-2.053,0.128-4.464L6.32,2.769C6.161,4.891,6.08,6.534,6.08,7.696
			c0.896,0,2.235-0.042,4.017-0.128l-0.128,3.184c-1.622-0.063-2.939-0.096-3.952-0.096c-0.021,1.419-0.032,2.907-0.032,4.464
			c0,1.898,0.191,3.17,0.576,3.816c0.384,0.645,1.061,0.969,2.032,0.969C9.18,19.906,9.809,19.815,10.481,19.634z"/>
		<path fill="#D1181F" d="M17.425,22.626h-4.304c0.149-2.209,0.224-4.742,0.224-7.602c0-2.838-0.182-5.323-0.544-7.457l4.608-0.463
			c-0.139,2.07-0.208,4.709-0.208,7.92C17.201,17.768,17.276,20.3,17.425,22.626z"/>
		<path fill="#D1181F" d="M35.507,22.626H31.25c0.234-2.699,0.352-5.431,0.352-8.193c0-1.674-0.248-2.811-0.744-3.408
			s-1.251-0.896-2.264-0.896c-1.216,0-2.369,0.416-3.457,1.248c0.054,4.162,0.08,7.912,0.08,11.25h-4.304
			c0.192-3.338,0.288-5.963,0.288-7.873c0-2.549-0.261-4.955-0.784-7.216l4.097-0.448l0.272,1.696h0.256
			c1.461-1.258,3.142-1.889,5.041-1.889c1.643,0,2.957,0.387,3.944,1.161c0.986,0.774,1.48,2.2,1.48,4.28
			c0,0.31-0.013,0.723-0.04,1.24c-0.027,0.518-0.04,1.049-0.04,1.592C35.427,16.609,35.453,19.095,35.507,22.626z"/>
		<path fill="#D1181F" d="M53.716,22.61l-3.792,0.128c-0.076-0.373-0.113-0.763-0.113-1.168h-0.238
			c-1.174,1.014-2.674,1.52-4.497,1.52c-2.048,0-3.675-0.74-4.88-2.223c-1.205-1.484-1.809-3.244-1.809-5.281
			c0-2.336,0.656-4.371,1.969-6.104c1.312-1.733,3.135-2.6,5.472-2.6c1.515,0,2.651,0.283,3.409,0.848h0.224
			c0-2.518-0.122-5.051-0.368-7.601L53.62,0c-0.17,2.485-0.257,6.059-0.257,10.721C53.363,15.446,53.48,19.41,53.716,22.61z
			 M49.7,18.977c0-3.401-0.081-6.218-0.241-8.448c-0.736-0.512-1.616-0.769-2.641-0.769c-1.408,0-2.452,0.523-3.135,1.568
			c-0.684,1.046-1.024,2.328-1.024,3.839c0,1.345,0.331,2.504,0.991,3.48c0.662,0.977,1.578,1.464,2.752,1.464
			C47.971,20.115,49.07,19.734,49.7,18.977z"/>
		<path fill="#D1181F" d="M17.545,0.92c-0.411-0.464-0.995-0.696-1.752-0.696c-0.896,0-1.592,0.267-2.088,0.8
			c-0.496,0.533-0.744,1.163-0.744,1.888c0,0.661,0.21,1.227,0.632,1.696c0.421,0.469,1.005,0.704,1.752,0.704
			c0.885,0,1.576-0.272,2.072-0.816s0.745-1.178,0.745-1.903C18.162,1.942,17.956,1.384,17.545,0.92z M16.992,3.492
			c-0.086,0.142-0.233,0.176-0.44,0.103c-0.082-0.027-0.238-0.111-0.47-0.252c-0.097-0.059-0.222-0.137-0.374-0.236l-0.08,0.072
			c0.212,0.648,0.28,1.037,0.203,1.165c-0.056,0.093-0.161,0.154-0.315,0.187c-0.154,0.03-0.28,0.017-0.376-0.042
			c-0.185-0.111-0.155-0.543,0.087-1.293l-0.098-0.06c-0.595,0.449-0.973,0.624-1.136,0.525c-0.094-0.057-0.169-0.157-0.224-0.299
			c-0.055-0.143-0.055-0.26,0.001-0.353c0.098-0.162,0.505-0.244,1.221-0.248l0.036-0.111c-0.209-0.163-0.48-0.399-0.814-0.706
			c-0.07-0.083-0.063-0.192,0.02-0.33c0.065-0.108,0.152-0.192,0.259-0.253c0.108-0.061,0.208-0.063,0.3-0.007
			c0.131,0.079,0.319,0.433,0.565,1.062l0.111-0.007c0.18-0.515,0.316-0.85,0.409-1.002c0.042-0.069,0.116-0.104,0.22-0.1
			c0.104,0.003,0.205,0.035,0.304,0.095c0.223,0.135,0.286,0.281,0.191,0.438c-0.108,0.178-0.376,0.441-0.807,0.79l0.034,0.113
			c0.62-0.009,0.998,0.028,1.133,0.11c0.086,0.051,0.128,0.147,0.127,0.289C17.079,3.28,17.049,3.398,16.992,3.492z"/>
	</g>
</g>
</svg>
