<?xml version="1.0" encoding="utf-8"?>
<!-- Generator: Adobe Illustrator 16.0.0, SVG Export Plug-In . SVG Version: 6.00 Build 0)  -->
<!DOCTYPE svg PUBLIC "-//W3C//DTD SVG 1.1//EN" "http://www.w3.org/Graphics/SVG/1.1/DTD/svg11.dtd">
<svg version="1.1" id="Layer_1" xmlns="http://www.w3.org/2000/svg" xmlns:xlink="http://www.w3.org/1999/xlink" x="0px" y="0px"
	 width="204.333px" height="48.667px" viewBox="0 0 204.333 48.667" enable-background="new 0 0 204.333 48.667"
	 xml:space="preserve">
<g>
	<path fill="#FF0000" d="M38.08-174.748v24.199h162.86l-8.465,9.837H38.08v38.344c0,8.814,2.494,13.813,9.695,13.813
		c3.378,0,5.872-0.444,7.494-0.879l0.587,9.695c-2.501,1.028-6.466,1.764-11.459,1.764c-6.024,0-10.875-1.914-13.963-5.438
		c-3.671-3.817-4.992-10.14-4.992-18.511v-38.787H14.425v-9.837h11.017v-24.199L38.08-174.748L38.08-174.748z"/>
	<path fill="#FF0000" d="M66.687-107.999c0-4.881-0.072-2.303-0.072-6.214l6.321-6.714l0.259,8.129h0.341
		c1.885-5.559,6.418-9.07,11.471-9.07c0.855,0,1.453,0.092,2.141,0.256v7.104c-0.771-0.164-1.544-0.256-2.571-0.256
		c-5.304,0-9.074,4.025-10.104,9.681c-0.167,1.021-0.338,2.224-0.338,3.499v22.092h-7.448V-107.999L66.687-107.999z"/>
	<path fill="#FF0000" d="M103.435-132.57c0.09,2.571-1.795,4.623-4.792,4.623c-2.653,0-4.538-2.052-4.538-4.623
		c0-2.649,1.972-4.708,4.712-4.708C101.64-137.278,103.435-135.219,103.435-132.57z M95.05-79.493v-34.434l7.529-7v33.434
		L95.05-79.493z"/>
	<path fill="#FF0000" d="M114.756-79.493c0.17-2.822,0.341-7.021,0.341-10.699v-43.063l7.446-7v26.007h0.174
		c2.65-4.625,7.447-7.62,14.123-7.62c10.275,0,17.549,8.563,17.467,21.145c0,14.813-9.333,22.169-18.579,22.169
		c-5.993,0-10.785-2.306-13.866-7.786h-0.256l-0.348,0.85L114.756-79.493z M122.543-96.104c0,0.947,0.174,1.885,0.343,2.74
		c1.459,5.225,5.819,8.819,11.297,8.819c7.878,0,12.583-6.418,12.583-15.925c0-8.305-4.273-15.408-12.324-15.408
		c-5.133,0-9.93,3.514-11.467,9.246c-0.174,0.855-0.432,1.885-0.432,3.083V-96.104L122.543-96.104z"/>
	<path fill="#FF0000" d="M168.056-98.84c0.174,10.188,6.679,14.383,14.209,14.383c5.396,0,8.647-0.946,11.474-2.146l1.286,5.397
		c-2.657,1.193-7.196,2.566-13.789,2.566c-12.75,0-20.372-8.392-20.372-20.89c0-12.498,7.366-22.343,19.434-22.343
		c13.522,0,17.119,11.903,17.119,19.521c0,1.536-0.17,2.739-0.258,3.509L168.056-98.84L168.056-98.84z M190.143-104.233
		c0.082-4.795-1.967-12.242-10.443-12.242c-7.619,0-10.957,7.021-11.562,12.242H190.143z"/>
	<path fill="#FFFFFF" stroke="#000000" stroke-miterlimit="10" d="M280.909-82.679c-4.703,2.354-14.104,4.703-26.152,4.703
		c-27.912,0-48.924-17.631-48.924-50.098c0-30.999,21.012-52.003,51.713-52.003c12.338,0,20.125,2.641,23.504,4.408l-3.084,10.43
		c-4.848-2.354-11.754-4.115-19.979-4.115c-23.211,0-38.636,14.84-38.636,40.84c0,24.241,13.953,39.813,38.05,39.813
		c7.781,0,15.72-1.619,20.858-4.113L280.909-82.679z"/>
	<path fill="#FFFFFF" stroke="#000000" stroke-miterlimit="10" d="M301.637-122.136l-5.992,18.145h-7.705l19.602-57.7h8.986
		l19.689,57.7h-7.961l-6.161-18.145H301.637z M320.553-127.964l-5.648-16.604c-1.279-3.768-2.143-7.189-2.996-10.534h-0.168
		c-0.855,3.429-1.805,6.938-2.914,10.449l-5.65,16.688L320.553-127.964L320.553-127.964z"/>
	<path fill="#FFFFFF" stroke="#000000" stroke-miterlimit="10" d="M343.717-113.069c3.342,2.055,8.219,3.771,13.359,3.771
		c7.614,0,12.065-4.021,12.065-9.84c0-5.398-3.078-8.478-10.873-11.477c-9.416-3.337-15.239-8.216-15.239-16.35
		c0-8.992,7.452-15.667,18.666-15.667c5.905,0,10.188,1.37,12.756,2.825l-2.056,6.075c-1.886-1.022-5.729-2.738-10.957-2.738
		c-7.879,0-10.875,4.712-10.875,8.649c0,5.396,3.517,8.044,11.476,11.13c9.76,3.763,14.729,8.475,14.729,16.942
		c0,8.907-6.594,16.611-20.207,16.611c-5.563,0-11.645-1.629-14.729-3.679L343.717-113.069z"/>
	<path fill="#FFFFFF" stroke="#000000" stroke-miterlimit="10" d="M397.956-155.358h-17.549v-6.333h42.719v6.333h-17.641v51.367
		h-7.529V-155.358z"/>
	<path fill="#FFFFFF" stroke="#000000" stroke-miterlimit="10" d="M459.465-131.045h-22.43v20.799h24.996v6.255h-32.439v-57.701
		h31.158v6.249h-23.715v18.237h22.43V-131.045z"/>
	<path fill="#FFFFFF" stroke="#000000" stroke-miterlimit="10" d="M471.75-160.921c3.76-0.771,9.16-1.196,14.297-1.196
		c7.959,0,13.098,1.455,16.689,4.708c2.906,2.566,4.537,6.508,4.537,10.957c0,7.622-4.789,12.67-10.869,14.727v0.256
		c4.451,1.54,7.104,5.646,8.477,11.642c1.885,8.047,3.254,13.614,4.447,15.838h-7.705c-0.941-1.625-2.223-6.593-3.846-13.785
		c-1.711-7.955-4.803-10.954-11.564-11.209H479.2v24.995h-7.447v-56.932L471.75-160.921L471.75-160.921z M479.2-134.639h7.617
		c7.965,0,13.01-4.367,13.01-10.959c0-7.445-5.389-10.7-13.27-10.782c-3.596,0-6.166,0.341-7.357,0.681V-134.639z"/>
</g>
<g>
	<path fill="#FF0000" stroke="#FFFFFF" stroke-miterlimit="10" d="M15.022,1.542v9.094h73.779v4.384H15.022v21.247
		c0,3.926,1.112,6.15,4.317,6.15c1.506,0,2.617-0.196,3.337-0.394l0.262,4.317c-1.112,0.457-2.879,0.785-5.104,0.785
		c-2.682,0-4.84-0.851-6.215-2.42c-1.636-1.703-2.225-4.516-2.225-8.244V15.018H3.559l-1.394-4.385h7.229V3.508L15.022,1.542z"/>
	<path fill="#FF0000" stroke="#FFFFFF" stroke-miterlimit="10" d="M27.751,28.149c0-2.174-0.039-4.043-0.153-5.76h2.937l0.115,3.624
		h0.152c0.84-2.479,2.861-4.043,5.111-4.043c0.381,0,0.648,0.038,0.955,0.114v3.166c-0.345-0.076-0.688-0.115-1.146-0.115
		c-2.365,0-4.043,1.794-4.5,4.313c-0.077,0.457-0.153,0.99-0.153,1.563v9.842h-3.318V28.149L27.751,28.149z"/>
	<path fill="#FF0000" stroke="#FFFFFF" stroke-miterlimit="10" d="M44.115,18.394c0.037,1.144-0.802,2.06-2.138,2.06
		c-1.183,0-2.021-0.916-2.021-2.06c0-1.183,0.877-2.099,2.098-2.099C43.313,16.295,44.115,17.209,44.115,18.394z M40.376,40.852
		V22.39h3.355v18.462H40.376z"/>
	<path fill="#FF0000" stroke="#FFFFFF" stroke-miterlimit="10" d="M49.148,40.852c0.076-1.26,0.153-3.128,0.153-4.768V16.749h3.317
		v8.617h0.076c1.184-2.06,3.318-3.395,6.295-3.395c4.576,0,7.818,3.814,7.78,9.421c0,6.601-4.157,9.88-8.276,9.88
		c-2.67,0-4.808-1.029-6.181-3.473h-0.114l-0.152,3.053H49.148L49.148,40.852z M52.621,33.452c0,0.42,0.076,0.84,0.152,1.221
		c0.648,2.326,2.594,3.93,5.035,3.93c3.51,0,5.607-2.859,5.607-7.096c0-3.7-1.907-6.866-5.494-6.866c-2.288,0-4.424,1.563-5.11,4.12
		c-0.077,0.382-0.19,0.839-0.19,1.373V33.452L52.621,33.452z"/>
	<path fill="#FF0000" stroke="#FFFFFF" stroke-miterlimit="10" d="M72.873,32.231c0.076,4.539,2.976,6.408,6.332,6.408
		c2.402,0,3.853-0.42,5.11-0.954l0.573,2.403c-1.184,0.533-3.205,1.145-6.143,1.145c-5.684,0-9.078-3.738-9.078-9.309
		c0-5.569,3.279-9.955,8.658-9.955c6.026,0,7.629,5.302,7.629,8.697c0,0.687-0.076,1.221-0.113,1.563L72.873,32.231L72.873,32.231z
		 M82.714,29.829c0.037-2.138-0.877-5.455-4.654-5.455c-3.395,0-4.883,3.127-5.15,5.455H82.714z"/>
	<path fill="#00D404" stroke="#FFFFFF" stroke-miterlimit="10" d="M123.117,45.032c-2.094,1.047-6.281,2.094-11.646,2.094
		c-12.431,0-21.787-7.851-21.787-22.31c0-13.806,9.356-23.161,23.03-23.161c5.494,0,8.964,1.178,10.468,1.963l-1.373,4.646
		c-2.159-1.048-5.233-1.833-8.897-1.833c-10.338,0-17.209,6.607-17.209,18.189c0,10.795,6.215,17.729,16.946,17.729
		c3.468,0,7.001-0.721,9.291-1.83L123.117,45.032z"/>
	<path fill="#00D404" stroke="#FFFFFF" stroke-miterlimit="10" d="M138.281,40.256l-0.268-2.326h-0.114
		c-1.03,1.447-3.013,2.746-5.646,2.746c-3.738,0-5.646-2.633-5.646-5.303c0-4.463,3.968-6.904,11.101-6.865v-0.383
		c0-1.525-0.42-4.272-4.196-4.272c-1.718,0-3.511,0.535-4.806,1.374l-0.765-2.212c1.524-0.992,3.738-1.642,6.065-1.642
		c5.646,0,7.019,3.854,7.019,7.553v6.904c0,1.603,0.076,3.166,0.306,4.426H138.281L138.281,40.256z M137.785,30.834
		c-3.662-0.076-7.82,0.572-7.82,4.158c0,2.174,1.449,3.203,3.166,3.203c2.404,0,3.93-1.525,4.463-3.09
		c0.115-0.343,0.191-0.727,0.191-1.068V30.834L137.785,30.834z"/>
	<path fill="#00D404" stroke="#FFFFFF" stroke-miterlimit="10" d="M145.984,36.823c0.992,0.647,2.747,1.336,4.426,1.336
		c2.44,0,3.586-1.222,3.586-2.746c0-1.604-0.955-2.479-3.434-3.396c-3.318-1.185-4.884-3.015-4.884-5.228
		c0-2.976,2.403-5.416,6.37-5.416c1.869,0,3.511,0.533,4.541,1.144l-0.84,2.44c-0.726-0.457-2.061-1.067-3.776-1.067
		c-1.983,0-3.089,1.144-3.089,2.519c0,1.523,1.105,2.211,3.509,3.127c3.203,1.221,4.845,2.822,4.845,5.568
		c0,3.242-2.519,5.531-6.904,5.531c-2.021,0-3.892-0.496-5.188-1.26L145.984,36.823z"/>
	<path fill="#00D404" stroke="#FFFFFF" stroke-miterlimit="10" d="M165.589,14.704v7.09h4.807v2.556h-4.807v9.956
		c0,2.29,0.648,3.586,2.518,3.586c0.879,0,1.525-0.114,1.947-0.229l0.15,2.519c-0.648,0.267-1.679,0.457-2.976,0.457
		c-1.563,0-2.821-0.496-3.624-1.412c-0.954-0.991-1.297-2.631-1.297-4.806V24.349h-2.859v-2.556h2.859v-6.211L165.589,14.704z"/>
	<path fill="#00D404" stroke="#FFFFFF" stroke-miterlimit="10" d="M175.812,31.635c0.076,4.539,2.975,6.408,6.332,6.408
		c2.402,0,3.854-0.42,5.109-0.955l0.572,2.404c-1.183,0.534-3.203,1.146-6.142,1.146c-5.683,0-9.078-3.738-9.078-9.308
		c0-5.57,3.281-9.957,8.659-9.957c6.025,0,7.629,5.303,7.629,8.697c0,0.688-0.076,1.221-0.113,1.563h-12.969V31.635z
		 M185.654,29.231c0.037-2.136-0.879-5.454-4.654-5.454c-3.396,0-4.883,3.128-5.149,5.454H185.654z"/>
	<path fill="#00D404" stroke="#FFFFFF" stroke-miterlimit="10" d="M193.052,27.554c0-2.175-0.038-4.044-0.152-5.761h2.938
		l0.115,3.623h0.151c0.838-2.479,2.86-4.041,5.11-4.041c0.383,0,0.648,0.039,0.953,0.113v3.166
		c-0.342-0.076-0.687-0.115-1.144-0.115c-2.364,0-4.044,1.795-4.502,4.313c-0.075,0.457-0.151,0.99-0.151,1.563v9.842h-3.318V27.554
		L193.052,27.554z"/>
</g>
<text transform="matrix(1 0 0 1 19.4395 309.0601)" font-family="'MyriadPro-Regular'" font-size="109.8131">tribeCaster</text>
</svg>
